<svg xmlns="http://www.w3.org/2000/svg" width="268" height="66" fill="none" xmlns:v="https://vecta.io/nano"><path d="M53.663 2.107L29.197 26.163s-.654 1.065-.163 2.537 3.272 7.039 10.147 9.82c0 0 1.145.572 2.045-.328l24.221-24.057s-2.776-.16-7.118-4.583c-4.5-4.581-4.666-7.445-4.666-7.445z" fill="#352b2f"/><path d="M67.295 12.053c-.918.928-4.288-.917-7.528-4.12s-5.12-6.55-4.2-7.481 4.287.919 7.524 4.121 5.122 6.552 4.204 7.48zm-23.86 37.186s-11.292-10.472-17.92-19.556-8.82-14.731-7.282-16.613c.736-.9 3.845.41 4.745.492s4.01 1.882 4.419-.737-1.472-3.19-2.374-3.845S12.177.307 8.25 3.743s2.781 24.302 35.185 45.495zm-15.506 9.005s-8.394-7.785-13.32-14.537-6.559-10.951-5.415-12.35c.547-.67 2.859.304 3.527.364s2.981 1.4 3.285-.546-1.093-2.372-1.763-2.86-9.55-6.447-12.472-3.892 2.07 18.068 26.158 33.82zm-11.874 3.798s-4.893-4.538-7.768-8.476-3.822-6.382-3.154-7.2c.317-.389 1.666.18 2.056.214s1.737.816 1.916-.319-.639-1.383-1.028-1.668-5.57-3.759-7.272-2.27 1.206 10.534 15.25 19.72z" fill="#e13c23"/><path d="M21.669 34.755s-.654-.491-.982-.082c-.165.206-1.444 1.534-3.208 3.799-.098.756-.048 1.668.426 2.583 1.145 2.209 5.81 7.692 8.837 8.428.928.225 1.65.27 2.236.241 1.843-1.336 3.639-2.817 4.72-4.168 0 0-7.773-5.156-12.03-10.801zm-10.08 12.61a351.54 351.54 0 0 0-2.212 3.755c.012 1.061.534 2.559 2.554 4.336 1.984 1.747 3.62 2.276 4.78 2.363a125.564 125.564 0 0 0 3.78-2.516 23.15 23.15 0 0 1-4.96-3.447c-1.82-1.67-3.326-3.276-3.942-4.49zm-5.086 8.967c-1.634 3.175-2.733 5.875-2.426 7.063 0 0 1.622.521 7.312-2.458-1.17-.844-3.518-2.662-4.886-4.605z" fill="#352b2f"/><path d="M52.729 30.284l-3.085 3.337c5.305 7.701 7.005 12.541 5.604 14.252-.738.9-3.847-.41-4.746-.493s-4.01-1.884-4.419.734 1.471 3.193 2.37 3.847 12.844 8.679 16.772 5.245c2.747-2.4.285-13.324-12.496-26.922zM35.26 16.77l.832-.92a152.19 152.19 0 0 0-6.032-4.158s2.187 2.032 5.2 5.078zm4.066 32.731c-2.028-1.22-3.664-2.473-3.664-2.473l-1.697 1.759c2.814 4.478 3.649 7.338 2.745 8.442-.548.668-2.859-.305-3.528-.366s-2.98-1.4-3.285.546 1.094 2.372 1.762 2.859 9.548 6.45 12.468 3.9c1.667-1.457.755-7.135-4.801-14.667zM23.085 57.48l-1.006-.633-1.546 1.354c.845 1.656 1.045 2.755.641 3.248-.319.39-1.667-.177-2.057-.213s-1.736-.816-1.914.319.636 1.382 1.026 1.666 5.568 3.762 7.27 2.274c.931-.814.478-3.893-2.414-8.015zm64.1-29.117h1.282c2.764 0 5.488 0 6.054-3.58.585-3.697-1.938-3.735-4.894-3.735h-1.285l-1.157 7.315zM81.689 14.9h11.673c6.303 0 10.2 2.918 9.133 9.65-1.094 6.926-5.31 9.96-11.965 9.96h-4.32l-1.538 9.729h-7.627l4.643-29.34zm28.702 29.339h-7.628l4.644-29.34h7.627l-4.643 29.34zm13.627-6.459h9.145l-1.022 6.459H115.37l4.644-29.34h7.625l-3.621 22.88zm21.86-16.422l-.776 4.903h8.599l-1.022 6.46h-8.598l-.802 5.059h9.067l-1.023 6.459h-16.692l4.643-29.34h16.693l-1.022 6.46h-9.067z" fill="#e13c23"/><path d="M167.635 33.85h.079l9.147-18.95h6.069l2.76 18.95h.079l8.524-18.95h7.937l-14.02 29.339h-7.783l-2.444-17.004h-.078l-8.451 17.004h-7.743l-4.112-29.34h7.938l2.098 18.95zm43.104-12.492l-.776 4.903h8.6l-1.022 6.46h-8.6l-.8 5.059h9.066l-1.022 6.459h-16.694l4.643-29.34h16.693l-1.021 6.46h-9.067zm29.711 1.09c-1.216-1.167-2.883-1.946-4.751-1.946-1.401 0-3.398.818-3.656 2.452-.272 1.712 1.686 2.374 2.942 2.802l1.853.584c3.895 1.205 6.72 3.268 5.969 8.014-.462 2.92-1.637 5.915-4.285 7.9-2.604 1.944-5.808 2.763-8.765 2.763-3.696 0-7.118-1.245-9.782-3.347l4.242-6.149c1.642 1.675 3.682 3.036 6.29 3.036 1.79 0 3.839-.895 4.164-2.957.339-2.14-2.54-2.879-4.1-3.347-4.57-1.361-7.525-2.607-6.626-8.288.942-5.953 5.798-9.844 11.674-9.844 2.956 0 6.428.935 8.802 2.412l-3.971 5.915zm16.083 21.791h-7.626l3.62-22.88h-6.302l1.021-6.46h20.233l-1.021 6.46h-6.303l-3.622 22.88z" fill="#352b2f"/></svg>